<svg width="1440" height="180" viewBox="0 0 1440 180" fill="none" xmlns="http://www.w3.org/2000/svg">
<line x1="461" y1="102" x2="1901" y2="102" stroke="#FF001E" stroke-width="8"/>
<circle cx="714" cy="102" r="23" fill="#518BBB" stroke="white" stroke-width="4"/>
<circle cx="714" cy="102" r="14.5" fill="#FF001E" stroke="#1A0D76" stroke-width="5"/>
<path d="M760.136 161.336C760.136 163.021 759.843 164.589 759.256 166.04C758.68 167.491 757.864 168.755 756.808 169.832C755.752 170.899 754.477 171.736 752.984 172.344C751.501 172.952 749.853 173.256 748.04 173.256C746.227 173.256 744.573 172.952 743.08 172.344C741.587 171.736 740.307 170.899 739.24 169.832C738.184 168.755 737.363 167.491 736.776 166.04C736.2 164.589 735.912 163.021 735.912 161.336C735.912 159.651 736.2 158.083 736.776 156.632C737.363 155.181 738.184 153.923 739.24 152.856C740.307 151.789 741.587 150.952 743.08 150.344C744.573 149.736 746.227 149.432 748.04 149.432C749.853 149.432 751.501 149.741 752.984 150.36C754.477 150.968 755.752 151.805 756.808 152.872C757.864 153.939 758.68 155.197 759.256 156.648C759.843 158.099 760.136 159.661 760.136 161.336ZM754.6 161.336C754.6 160.184 754.451 159.149 754.152 158.232C753.853 157.304 753.421 156.52 752.856 155.88C752.301 155.24 751.619 154.749 750.808 154.408C749.997 154.067 749.075 153.896 748.04 153.896C746.995 153.896 746.061 154.067 745.24 154.408C744.429 154.749 743.741 155.24 743.176 155.88C742.621 156.52 742.195 157.304 741.896 158.232C741.597 159.149 741.448 160.184 741.448 161.336C741.448 162.499 741.597 163.544 741.896 164.472C742.195 165.389 742.621 166.168 743.176 166.808C743.741 167.448 744.429 167.939 745.24 168.28C746.061 168.611 746.995 168.776 748.04 168.776C749.075 168.776 749.997 168.611 750.808 168.28C751.619 167.939 752.301 167.448 752.856 166.808C753.421 166.168 753.853 165.389 754.152 164.472C754.451 163.544 754.6 162.499 754.6 161.336ZM774.747 160.344C774.598 160.525 774.454 160.669 774.315 160.776C774.176 160.883 773.979 160.936 773.723 160.936C773.478 160.936 773.254 160.877 773.051 160.76C772.859 160.643 772.64 160.515 772.395 160.376C772.15 160.227 771.862 160.093 771.531 159.976C771.2 159.859 770.79 159.8 770.299 159.8C769.691 159.8 769.163 159.912 768.715 160.136C768.278 160.36 767.915 160.68 767.627 161.096C767.339 161.512 767.126 162.024 766.987 162.632C766.848 163.229 766.779 163.907 766.779 164.664C766.779 166.253 767.083 167.475 767.691 168.328C768.31 169.181 769.158 169.608 770.235 169.608C770.811 169.608 771.264 169.539 771.595 169.4C771.936 169.251 772.224 169.091 772.459 168.92C772.694 168.739 772.907 168.573 773.099 168.424C773.302 168.275 773.552 168.2 773.851 168.2C774.246 168.2 774.544 168.344 774.747 168.632L776.187 170.408C775.675 170.995 775.136 171.475 774.571 171.848C774.006 172.211 773.424 172.499 772.827 172.712C772.24 172.915 771.648 173.053 771.051 173.128C770.454 173.213 769.872 173.256 769.307 173.256C768.294 173.256 767.323 173.064 766.395 172.68C765.478 172.296 764.667 171.741 763.963 171.016C763.27 170.28 762.715 169.379 762.299 168.312C761.894 167.245 761.691 166.029 761.691 164.664C761.691 163.469 761.867 162.355 762.219 161.32C762.582 160.275 763.11 159.373 763.803 158.616C764.507 157.848 765.371 157.245 766.395 156.808C767.43 156.371 768.624 156.152 769.979 156.152C771.28 156.152 772.422 156.36 773.403 156.776C774.384 157.192 775.27 157.8 776.059 158.6L774.747 160.344ZM784.054 173.256C783.264 173.256 782.566 173.144 781.958 172.92C781.36 172.685 780.854 172.36 780.438 171.944C780.032 171.517 779.723 171.005 779.51 170.408C779.296 169.811 779.19 169.144 779.19 168.408V159.832H777.782C777.526 159.832 777.307 159.752 777.126 159.592C776.944 159.421 776.854 159.176 776.854 158.856V156.92L779.494 156.408L780.47 152.36C780.598 151.848 780.96 151.592 781.558 151.592H784.15V156.44H788.262V159.832H784.15V168.072C784.15 168.456 784.24 168.776 784.422 169.032C784.614 169.277 784.886 169.4 785.238 169.4C785.419 169.4 785.568 169.384 785.686 169.352C785.814 169.309 785.92 169.267 786.006 169.224C786.102 169.171 786.187 169.128 786.262 169.096C786.347 169.053 786.443 169.032 786.55 169.032C786.699 169.032 786.816 169.069 786.902 169.144C786.998 169.208 787.094 169.315 787.19 169.464L788.694 171.816C788.054 172.296 787.334 172.659 786.534 172.904C785.734 173.139 784.907 173.256 784.054 173.256ZM811.741 168.52C812.274 168.52 812.696 168.669 813.005 168.968C813.314 169.256 813.469 169.64 813.469 170.12V173H797.085V171.4C797.085 171.091 797.149 170.76 797.277 170.408C797.405 170.056 797.629 169.736 797.949 169.448L804.669 162.68C805.245 162.104 805.746 161.555 806.173 161.032C806.6 160.509 806.952 159.997 807.229 159.496C807.506 158.984 807.714 158.477 807.853 157.976C807.992 157.464 808.061 156.925 808.061 156.36C808.061 155.432 807.837 154.723 807.389 154.232C806.952 153.731 806.28 153.48 805.373 153.48C804.637 153.48 804.013 153.677 803.501 154.072C803 154.456 802.653 154.936 802.461 155.512C802.237 156.099 801.944 156.488 801.581 156.68C801.218 156.872 800.701 156.915 800.029 156.808L797.405 156.344C797.576 155.181 797.901 154.168 798.381 153.304C798.872 152.44 799.474 151.72 800.189 151.144C800.914 150.568 801.741 150.141 802.669 149.864C803.597 149.576 804.594 149.432 805.661 149.432C806.813 149.432 807.848 149.603 808.765 149.944C809.693 150.275 810.482 150.739 811.133 151.336C811.784 151.933 812.28 152.648 812.621 153.48C812.973 154.301 813.149 155.208 813.149 156.2C813.149 157.053 813.026 157.843 812.781 158.568C812.546 159.293 812.221 159.987 811.805 160.648C811.389 161.299 810.904 161.933 810.349 162.552C809.805 163.16 809.224 163.779 808.605 164.408L804.045 169.08C804.632 168.899 805.213 168.76 805.789 168.664C806.365 168.568 806.898 168.52 807.389 168.52H811.741ZM832.608 161.336C832.608 163.373 832.389 165.139 831.951 166.632C831.514 168.125 830.906 169.363 830.128 170.344C829.36 171.325 828.442 172.056 827.376 172.536C826.32 173.016 825.173 173.256 823.936 173.256C822.698 173.256 821.552 173.016 820.496 172.536C819.45 172.056 818.544 171.325 817.776 170.344C817.008 169.363 816.405 168.125 815.968 166.632C815.541 165.139 815.328 163.373 815.328 161.336C815.328 159.299 815.541 157.533 815.968 156.04C816.405 154.547 817.008 153.309 817.776 152.328C818.544 151.347 819.45 150.621 820.496 150.152C821.552 149.672 822.698 149.432 823.936 149.432C825.173 149.432 826.32 149.672 827.376 150.152C828.442 150.621 829.36 151.347 830.128 152.328C830.906 153.309 831.514 154.547 831.951 156.04C832.389 157.533 832.608 159.299 832.608 161.336ZM827.488 161.336C827.488 159.725 827.386 158.408 827.184 157.384C826.981 156.349 826.709 155.539 826.368 154.952C826.037 154.365 825.658 153.965 825.232 153.752C824.805 153.528 824.373 153.416 823.936 153.416C823.498 153.416 823.066 153.528 822.64 153.752C822.224 153.965 821.85 154.365 821.52 154.952C821.2 155.539 820.938 156.349 820.736 157.384C820.544 158.408 820.448 159.725 820.448 161.336C820.448 162.957 820.544 164.28 820.736 165.304C820.938 166.328 821.2 167.139 821.52 167.736C821.85 168.323 822.224 168.728 822.64 168.952C823.066 169.165 823.498 169.272 823.936 169.272C824.373 169.272 824.805 169.165 825.232 168.952C825.658 168.728 826.037 168.323 826.368 167.736C826.709 167.139 826.981 166.328 827.184 165.304C827.386 164.28 827.488 162.957 827.488 161.336ZM850.066 169.416V173H836.786V169.416H841.266V157.656C841.266 157.357 841.271 157.059 841.282 156.76C841.293 156.451 841.309 156.141 841.33 155.832L838.674 158.04C838.439 158.221 838.205 158.333 837.97 158.376C837.746 158.408 837.533 158.408 837.33 158.376C837.127 158.333 836.946 158.264 836.786 158.168C836.626 158.061 836.509 157.955 836.434 157.848L834.866 155.768L842.13 149.672H846.226V169.416H850.066ZM857.781 156.808C857.781 159.133 858.858 160.296 861.013 160.296C862.069 160.296 862.879 159.981 863.445 159.352C864.021 158.712 864.309 157.864 864.309 156.808C864.309 156.243 864.223 155.747 864.053 155.32C863.893 154.883 863.663 154.52 863.365 154.232C863.077 153.944 862.725 153.725 862.309 153.576C861.893 153.427 861.439 153.352 860.949 153.352C860.447 153.352 859.999 153.443 859.605 153.624C859.221 153.795 858.89 154.035 858.613 154.344C858.346 154.653 858.138 155.021 857.989 155.448C857.85 155.864 857.781 156.317 857.781 156.808ZM861.749 164.168C861.898 163.987 862.042 163.811 862.181 163.64C862.319 163.469 862.447 163.299 862.565 163.128C861.583 163.651 860.469 163.912 859.221 163.912C858.463 163.912 857.706 163.779 856.949 163.512C856.191 163.235 855.503 162.819 854.885 162.264C854.277 161.709 853.781 161.011 853.397 160.168C853.013 159.325 852.821 158.328 852.821 157.176C852.821 156.12 853.013 155.123 853.397 154.184C853.791 153.245 854.346 152.424 855.061 151.72C855.786 151.016 856.65 150.461 857.653 150.056C858.655 149.64 859.775 149.432 861.013 149.432C862.271 149.432 863.397 149.624 864.389 150.008C865.381 150.392 866.218 150.931 866.901 151.624C867.594 152.317 868.122 153.144 868.485 154.104C868.858 155.053 869.045 156.104 869.045 157.256C869.045 158.781 868.815 160.147 868.357 161.352C867.898 162.557 867.285 163.693 866.517 164.76L861.493 171.896C861.269 172.205 860.927 172.467 860.469 172.68C860.021 172.893 859.509 173 858.933 173H854.357L861.749 164.168Z" fill="white"/>
<line x1="714" y1="33" x2="714" y2="173" stroke="#FF001E" stroke-width="4"/>
<line x1="-3.49691e-07" y1="102" x2="1440" y2="102" stroke="#FF001E" stroke-width="8"/>
<circle cx="253" cy="102" r="23" fill="#518BBB" stroke="white" stroke-width="4"/>
<circle cx="253" cy="102" r="14.5" fill="#FF001E" stroke="#1A0D76" stroke-width="5"/>
<path d="M300.608 149.688V173H297.792C297.376 173 297.024 172.936 296.736 172.808C296.459 172.669 296.181 172.435 295.904 172.104L284.912 158.2C284.955 158.616 284.981 159.021 284.992 159.416C285.013 159.8 285.024 160.163 285.024 160.504V173H280.256V149.688H283.104C283.339 149.688 283.536 149.699 283.696 149.72C283.856 149.741 284 149.784 284.128 149.848C284.256 149.901 284.379 149.981 284.496 150.088C284.613 150.195 284.747 150.339 284.896 150.52L295.984 164.52C295.931 164.072 295.893 163.64 295.872 163.224C295.851 162.797 295.84 162.397 295.84 162.024V149.688H300.608ZM311.703 156.152C312.962 156.152 314.108 156.349 315.143 156.744C316.178 157.139 317.063 157.704 317.799 158.44C318.546 159.176 319.122 160.072 319.527 161.128C319.943 162.173 320.151 163.352 320.151 164.664C320.151 165.987 319.943 167.181 319.527 168.248C319.122 169.304 318.546 170.205 317.799 170.952C317.063 171.688 316.178 172.259 315.143 172.664C314.108 173.059 312.962 173.256 311.703 173.256C310.434 173.256 309.276 173.059 308.231 172.664C307.196 172.259 306.3 171.688 305.543 170.952C304.796 170.205 304.215 169.304 303.799 168.248C303.394 167.181 303.191 165.987 303.191 164.664C303.191 163.352 303.394 162.173 303.799 161.128C304.215 160.072 304.796 159.176 305.543 158.44C306.3 157.704 307.196 157.139 308.231 156.744C309.276 156.349 310.434 156.152 311.703 156.152ZM311.703 169.576C312.844 169.576 313.682 169.176 314.215 168.376C314.759 167.565 315.031 166.339 315.031 164.696C315.031 163.053 314.759 161.832 314.215 161.032C313.682 160.232 312.844 159.832 311.703 159.832C310.53 159.832 309.671 160.232 309.127 161.032C308.583 161.832 308.311 163.053 308.311 164.696C308.311 166.339 308.583 167.565 309.127 168.376C309.671 169.176 310.53 169.576 311.703 169.576ZM337.718 156.408L331.286 173H326.774L320.342 156.408H324.47C324.822 156.408 325.116 156.493 325.35 156.664C325.596 156.824 325.761 157.027 325.846 157.272L328.15 164.712C328.353 165.32 328.529 165.912 328.678 166.488C328.838 167.064 328.977 167.64 329.094 168.216C329.329 167.064 329.654 165.896 330.07 164.712L332.47 157.272C332.556 157.027 332.716 156.824 332.95 156.664C333.185 156.493 333.462 156.408 333.782 156.408H337.718ZM359.897 168.52C360.431 168.52 360.852 168.669 361.161 168.968C361.471 169.256 361.625 169.64 361.625 170.12V173H345.241V171.4C345.241 171.091 345.305 170.76 345.433 170.408C345.561 170.056 345.785 169.736 346.105 169.448L352.825 162.68C353.401 162.104 353.903 161.555 354.329 161.032C354.756 160.509 355.108 159.997 355.385 159.496C355.663 158.984 355.871 158.477 356.009 157.976C356.148 157.464 356.217 156.925 356.217 156.36C356.217 155.432 355.993 154.723 355.545 154.232C355.108 153.731 354.436 153.48 353.529 153.48C352.793 153.48 352.169 153.677 351.657 154.072C351.156 154.456 350.809 154.936 350.617 155.512C350.393 156.099 350.1 156.488 349.737 156.68C349.375 156.872 348.857 156.915 348.185 156.808L345.561 156.344C345.732 155.181 346.057 154.168 346.537 153.304C347.028 152.44 347.631 151.72 348.345 151.144C349.071 150.568 349.897 150.141 350.825 149.864C351.753 149.576 352.751 149.432 353.817 149.432C354.969 149.432 356.004 149.603 356.921 149.944C357.849 150.275 358.639 150.739 359.289 151.336C359.94 151.933 360.436 152.648 360.777 153.48C361.129 154.301 361.305 155.208 361.305 156.2C361.305 157.053 361.183 157.843 360.937 158.568C360.703 159.293 360.377 159.987 359.961 160.648C359.545 161.299 359.06 161.933 358.505 162.552C357.961 163.16 357.38 163.779 356.761 164.408L352.201 169.08C352.788 168.899 353.369 168.76 353.945 168.664C354.521 168.568 355.055 168.52 355.545 168.52H359.897ZM380.764 161.336C380.764 163.373 380.545 165.139 380.108 166.632C379.67 168.125 379.062 169.363 378.284 170.344C377.516 171.325 376.598 172.056 375.532 172.536C374.476 173.016 373.329 173.256 372.092 173.256C370.854 173.256 369.708 173.016 368.652 172.536C367.606 172.056 366.7 171.325 365.932 170.344C365.164 169.363 364.561 168.125 364.124 166.632C363.697 165.139 363.484 163.373 363.484 161.336C363.484 159.299 363.697 157.533 364.124 156.04C364.561 154.547 365.164 153.309 365.932 152.328C366.7 151.347 367.606 150.621 368.652 150.152C369.708 149.672 370.854 149.432 372.092 149.432C373.329 149.432 374.476 149.672 375.532 150.152C376.598 150.621 377.516 151.347 378.284 152.328C379.062 153.309 379.67 154.547 380.108 156.04C380.545 157.533 380.764 159.299 380.764 161.336ZM375.644 161.336C375.644 159.725 375.542 158.408 375.34 157.384C375.137 156.349 374.865 155.539 374.524 154.952C374.193 154.365 373.814 153.965 373.388 153.752C372.961 153.528 372.529 153.416 372.092 153.416C371.654 153.416 371.222 153.528 370.796 153.752C370.38 153.965 370.006 154.365 369.676 154.952C369.356 155.539 369.094 156.349 368.892 157.384C368.7 158.408 368.604 159.725 368.604 161.336C368.604 162.957 368.7 164.28 368.892 165.304C369.094 166.328 369.356 167.139 369.676 167.736C370.006 168.323 370.38 168.728 370.796 168.952C371.222 169.165 371.654 169.272 372.092 169.272C372.529 169.272 372.961 169.165 373.388 168.952C373.814 168.728 374.193 168.323 374.524 167.736C374.865 167.139 375.137 166.328 375.34 165.304C375.542 164.28 375.644 162.957 375.644 161.336ZM398.222 169.416V173H384.942V169.416H389.422V157.656C389.422 157.357 389.428 157.059 389.438 156.76C389.449 156.451 389.465 156.141 389.486 155.832L386.83 158.04C386.596 158.221 386.361 158.333 386.126 158.376C385.902 158.408 385.689 158.408 385.486 158.376C385.284 158.333 385.102 158.264 384.942 158.168C384.782 158.061 384.665 157.955 384.59 157.848L383.022 155.768L390.286 149.672H394.382V169.416H398.222ZM409.249 169.512C409.803 169.512 410.283 169.427 410.689 169.256C411.094 169.085 411.425 168.856 411.681 168.568C411.947 168.269 412.139 167.923 412.257 167.528C412.385 167.123 412.449 166.691 412.449 166.232C412.449 165.731 412.395 165.272 412.289 164.856C412.182 164.44 412.006 164.088 411.761 163.8C411.515 163.501 411.185 163.272 410.769 163.112C410.363 162.941 409.857 162.856 409.249 162.856C408.641 162.856 408.129 162.941 407.713 163.112C407.307 163.272 406.982 163.501 406.737 163.8C406.491 164.088 406.315 164.44 406.209 164.856C406.102 165.272 406.049 165.731 406.049 166.232C406.049 166.691 406.107 167.123 406.225 167.528C406.353 167.923 406.545 168.269 406.801 168.568C407.067 168.856 407.398 169.085 407.793 169.256C408.198 169.427 408.683 169.512 409.249 169.512ZM409.249 153.048C408.747 153.048 408.326 153.128 407.985 153.288C407.643 153.448 407.361 153.661 407.137 153.928C406.923 154.184 406.769 154.483 406.673 154.824C406.577 155.165 406.529 155.517 406.529 155.88C406.529 156.285 406.566 156.68 406.641 157.064C406.715 157.448 406.854 157.789 407.057 158.088C407.259 158.387 407.537 158.627 407.889 158.808C408.241 158.989 408.694 159.08 409.249 159.08C409.803 159.08 410.257 158.989 410.609 158.808C410.961 158.627 411.238 158.387 411.441 158.088C411.643 157.789 411.782 157.448 411.857 157.064C411.931 156.68 411.969 156.285 411.969 155.88C411.969 155.517 411.921 155.165 411.825 154.824C411.729 154.483 411.569 154.184 411.345 153.928C411.131 153.661 410.849 153.448 410.497 153.288C410.155 153.128 409.739 153.048 409.249 153.048ZM413.649 160.84C414.342 161.085 414.934 161.389 415.425 161.752C415.926 162.115 416.331 162.531 416.641 163C416.961 163.469 417.195 163.987 417.345 164.552C417.494 165.107 417.569 165.699 417.569 166.328C417.569 167.373 417.366 168.323 416.961 169.176C416.566 170.029 416.001 170.76 415.265 171.368C414.539 171.965 413.665 172.429 412.641 172.76C411.617 173.091 410.486 173.256 409.249 173.256C408.011 173.256 406.881 173.091 405.857 172.76C404.833 172.429 403.953 171.965 403.217 171.368C402.491 170.76 401.926 170.029 401.521 169.176C401.126 168.323 400.929 167.373 400.929 166.328C400.929 165.699 401.003 165.107 401.153 164.552C401.302 163.987 401.531 163.469 401.841 163C402.161 162.531 402.566 162.115 403.057 161.752C403.558 161.389 404.155 161.085 404.849 160.84C403.793 160.36 403.003 159.699 402.481 158.856C401.958 158.003 401.697 156.979 401.697 155.784C401.697 154.877 401.883 154.04 402.257 153.272C402.63 152.493 403.153 151.821 403.825 151.256C404.497 150.691 405.291 150.248 406.209 149.928C407.137 149.597 408.15 149.432 409.249 149.432C410.347 149.432 411.355 149.597 412.273 149.928C413.201 150.248 414.001 150.691 414.673 151.256C415.345 151.821 415.867 152.493 416.241 153.272C416.614 154.04 416.801 154.877 416.801 155.784C416.801 156.979 416.539 158.003 416.017 158.856C415.494 159.699 414.705 160.36 413.649 160.84Z" fill="white"/>
<line x1="253" y1="33" x2="253" y2="173" stroke="#FF001E" stroke-width="4"/>
<path d="M296.608 1.688V25H293.792C293.376 25 293.024 24.936 292.736 24.808C292.459 24.6693 292.181 24.4347 291.904 24.104L280.912 10.2C280.955 10.616 280.981 11.0213 280.992 11.416C281.013 11.8 281.024 12.1627 281.024 12.504V25H276.256V1.688H279.104C279.339 1.688 279.536 1.69867 279.696 1.72C279.856 1.74133 280 1.784 280.128 1.848C280.256 1.90133 280.379 1.98133 280.496 2.088C280.613 2.19467 280.747 2.33867 280.896 2.52L291.984 16.52C291.931 16.072 291.893 15.64 291.872 15.224C291.851 14.7973 291.84 14.3973 291.84 14.024V1.688H296.608ZM316.843 18.968C316.971 18.968 317.099 18.9947 317.227 19.048C317.355 19.0907 317.478 19.1707 317.595 19.288L319.739 21.544C318.8 22.7707 317.622 23.6987 316.203 24.328C314.795 24.9467 313.126 25.256 311.195 25.256C309.424 25.256 307.835 24.9573 306.427 24.36C305.03 23.752 303.84 22.92 302.859 21.864C301.888 20.7973 301.142 19.5387 300.619 18.088C300.096 16.6267 299.835 15.0427 299.835 13.336C299.835 11.5973 300.118 10.0027 300.683 8.552C301.248 7.09067 302.043 5.832 303.067 4.776C304.091 3.72 305.318 2.89867 306.747 2.312C308.176 1.72533 309.75 1.432 311.467 1.432C312.342 1.432 313.163 1.512 313.931 1.672C314.71 1.82133 315.435 2.03466 316.107 2.312C316.779 2.57867 317.398 2.904 317.963 3.288C318.528 3.672 319.03 4.088 319.467 4.536L317.643 6.984C317.526 7.13333 317.387 7.272 317.227 7.4C317.067 7.51733 316.843 7.576 316.555 7.576C316.363 7.576 316.182 7.53333 316.011 7.448C315.84 7.36267 315.659 7.26133 315.467 7.144C315.275 7.016 315.062 6.88267 314.827 6.744C314.603 6.59467 314.331 6.46133 314.011 6.344C313.702 6.216 313.334 6.10933 312.907 6.024C312.491 5.93867 312 5.896 311.435 5.896C310.539 5.896 309.718 6.06133 308.971 6.392C308.235 6.72267 307.595 7.208 307.051 7.848C306.518 8.47733 306.102 9.256 305.803 10.184C305.515 11.1013 305.371 12.152 305.371 13.336C305.371 14.5307 305.531 15.592 305.851 16.52C306.182 17.448 306.624 18.232 307.179 18.872C307.744 19.5013 308.4 19.9813 309.147 20.312C309.894 20.6427 310.694 20.808 311.547 20.808C312.038 20.808 312.486 20.7867 312.891 20.744C313.296 20.6907 313.675 20.6107 314.027 20.504C314.379 20.3867 314.71 20.2373 315.019 20.056C315.328 19.864 315.643 19.624 315.963 19.336C316.091 19.2293 316.23 19.144 316.379 19.08C316.528 19.0053 316.683 18.968 316.843 18.968ZM337.281 18.968C337.409 18.968 337.537 18.9947 337.665 19.048C337.793 19.0907 337.915 19.1707 338.033 19.288L340.177 21.544C339.238 22.7707 338.059 23.6987 336.641 24.328C335.233 24.9467 333.563 25.256 331.633 25.256C329.862 25.256 328.273 24.9573 326.865 24.36C325.467 23.752 324.278 22.92 323.297 21.864C322.326 20.7973 321.579 19.5387 321.057 18.088C320.534 16.6267 320.273 15.0427 320.273 13.336C320.273 11.5973 320.555 10.0027 321.121 8.552C321.686 7.09067 322.481 5.832 323.505 4.776C324.529 3.72 325.755 2.89867 327.185 2.312C328.614 1.72533 330.187 1.432 331.905 1.432C332.779 1.432 333.601 1.512 334.369 1.672C335.147 1.82133 335.873 2.03466 336.545 2.312C337.217 2.57867 337.835 2.904 338.401 3.288C338.966 3.672 339.467 4.088 339.905 4.536L338.081 6.984C337.963 7.13333 337.825 7.272 337.665 7.4C337.505 7.51733 337.281 7.576 336.993 7.576C336.801 7.576 336.619 7.53333 336.449 7.448C336.278 7.36267 336.097 7.26133 335.905 7.144C335.713 7.016 335.499 6.88267 335.265 6.744C335.041 6.59467 334.769 6.46133 334.449 6.344C334.139 6.216 333.771 6.10933 333.345 6.024C332.929 5.93867 332.438 5.896 331.873 5.896C330.977 5.896 330.155 6.06133 329.409 6.392C328.673 6.72267 328.033 7.208 327.489 7.848C326.955 8.47733 326.539 9.256 326.241 10.184C325.953 11.1013 325.809 12.152 325.809 13.336C325.809 14.5307 325.969 15.592 326.289 16.52C326.619 17.448 327.062 18.232 327.617 18.872C328.182 19.5013 328.838 19.9813 329.585 20.312C330.331 20.6427 331.131 20.808 331.985 20.808C332.475 20.808 332.923 20.7867 333.329 20.744C333.734 20.6907 334.113 20.6107 334.465 20.504C334.817 20.3867 335.147 20.2373 335.457 20.056C335.766 19.864 336.081 19.624 336.401 19.336C336.529 19.2293 336.667 19.144 336.817 19.08C336.966 19.0053 337.121 18.968 337.281 18.968ZM357.928 18.248C356.936 18.2907 356.12 18.376 355.48 18.504C354.84 18.632 354.333 18.792 353.96 18.984C353.586 19.176 353.325 19.3947 353.176 19.64C353.037 19.8853 352.968 20.152 352.968 20.44C352.968 21.0053 353.122 21.4053 353.432 21.64C353.741 21.864 354.194 21.976 354.792 21.976C355.432 21.976 355.992 21.864 356.472 21.64C356.952 21.416 357.437 21.0533 357.928 20.552V18.248ZM349 10.712C350.002 9.82667 351.112 9.17067 352.328 8.744C353.554 8.30667 354.866 8.088 356.264 8.088C357.266 8.088 358.168 8.25333 358.968 8.584C359.778 8.904 360.461 9.35733 361.016 9.944C361.581 10.52 362.013 11.208 362.312 12.008C362.61 12.808 362.76 13.6827 362.76 14.632V25H360.488C360.018 25 359.661 24.936 359.416 24.808C359.181 24.68 358.984 24.4133 358.824 24.008L358.472 23.096C358.056 23.448 357.656 23.7573 357.272 24.024C356.888 24.2907 356.488 24.52 356.072 24.712C355.666 24.8933 355.229 25.0267 354.76 25.112C354.301 25.208 353.789 25.256 353.224 25.256C352.466 25.256 351.778 25.16 351.16 24.968C350.541 24.7653 350.013 24.472 349.576 24.088C349.149 23.704 348.818 23.2293 348.584 22.664C348.349 22.088 348.232 21.4267 348.232 20.68C348.232 20.0827 348.381 19.48 348.68 18.872C348.978 18.2533 349.496 17.6933 350.232 17.192C350.968 16.68 351.96 16.2533 353.208 15.912C354.456 15.5707 356.029 15.3787 357.928 15.336V14.632C357.928 13.6613 357.725 12.9627 357.32 12.536C356.925 12.0987 356.36 11.88 355.624 11.88C355.037 11.88 354.557 11.944 354.184 12.072C353.81 12.2 353.474 12.344 353.176 12.504C352.888 12.664 352.605 12.808 352.328 12.936C352.05 13.064 351.72 13.128 351.336 13.128C350.994 13.128 350.706 13.0427 350.472 12.872C350.237 12.7013 350.045 12.4987 349.896 12.264L349 10.712ZM370.89 20.488C371.263 20.8933 371.669 21.1813 372.106 21.352C372.543 21.5227 373.002 21.608 373.482 21.608C373.941 21.608 374.362 21.5173 374.746 21.336C375.13 21.1547 375.461 20.8667 375.738 20.472C376.026 20.0667 376.25 19.544 376.41 18.904C376.57 18.264 376.65 17.4853 376.65 16.568C376.65 15.6933 376.586 14.9573 376.458 14.36C376.33 13.7627 376.149 13.2827 375.914 12.92C375.69 12.5467 375.418 12.28 375.098 12.12C374.778 11.96 374.421 11.88 374.026 11.88C373.301 11.88 372.703 12.0133 372.234 12.28C371.765 12.5467 371.317 12.936 370.89 13.448V20.488ZM370.586 10.456C371.237 9.76267 371.973 9.19733 372.794 8.76C373.626 8.312 374.613 8.088 375.754 8.088C376.618 8.088 377.418 8.28 378.154 8.664C378.89 9.048 379.525 9.60267 380.058 10.328C380.591 11.0533 381.007 11.944 381.306 13C381.615 14.0453 381.77 15.2347 381.77 16.568C381.77 17.816 381.594 18.968 381.242 20.024C380.901 21.08 380.415 21.9973 379.786 22.776C379.167 23.5547 378.421 24.1627 377.546 24.6C376.682 25.0373 375.722 25.256 374.666 25.256C373.802 25.256 373.077 25.1333 372.49 24.888C371.903 24.6427 371.37 24.312 370.89 23.896V30.264H365.93V8.408H369.002C369.621 8.408 370.026 8.68533 370.218 9.24L370.586 10.456ZM389.296 20.488C389.67 20.8933 390.075 21.1813 390.512 21.352C390.95 21.5227 391.408 21.608 391.888 21.608C392.347 21.608 392.768 21.5173 393.152 21.336C393.536 21.1547 393.867 20.8667 394.144 20.472C394.432 20.0667 394.656 19.544 394.816 18.904C394.976 18.264 395.056 17.4853 395.056 16.568C395.056 15.6933 394.992 14.9573 394.864 14.36C394.736 13.7627 394.555 13.2827 394.32 12.92C394.096 12.5467 393.824 12.28 393.504 12.12C393.184 11.96 392.827 11.88 392.432 11.88C391.707 11.88 391.11 12.0133 390.64 12.28C390.171 12.5467 389.723 12.936 389.296 13.448V20.488ZM388.992 10.456C389.643 9.76267 390.379 9.19733 391.2 8.76C392.032 8.312 393.019 8.088 394.16 8.088C395.024 8.088 395.824 8.28 396.56 8.664C397.296 9.048 397.931 9.60267 398.464 10.328C398.998 11.0533 399.414 11.944 399.712 13C400.022 14.0453 400.176 15.2347 400.176 16.568C400.176 17.816 400 18.968 399.648 20.024C399.307 21.08 398.822 21.9973 398.192 22.776C397.574 23.5547 396.827 24.1627 395.952 24.6C395.088 25.0373 394.128 25.256 393.072 25.256C392.208 25.256 391.483 25.1333 390.896 24.888C390.31 24.6427 389.776 24.312 389.296 23.896V30.264H384.336V8.408H387.408C388.027 8.408 388.432 8.68533 388.624 9.24L388.992 10.456ZM407.703 1.048V25H402.743V1.048H407.703ZM416.127 8.408V25H411.167V8.408H416.127ZM416.639 3.864C416.639 4.25867 416.559 4.632 416.399 4.984C416.239 5.32533 416.02 5.62933 415.743 5.896C415.466 6.152 415.14 6.36 414.767 6.52C414.404 6.66933 414.015 6.744 413.599 6.744C413.194 6.744 412.815 6.66933 412.463 6.52C412.111 6.36 411.796 6.152 411.519 5.896C411.252 5.62933 411.039 5.32533 410.879 4.984C410.73 4.632 410.655 4.25867 410.655 3.864C410.655 3.45867 410.73 3.08 410.879 2.728C411.039 2.376 411.252 2.06667 411.519 1.8C411.796 1.53333 412.111 1.32533 412.463 1.176C412.815 1.02667 413.194 0.952 413.599 0.952C414.015 0.952 414.404 1.02667 414.767 1.176C415.14 1.32533 415.466 1.53333 415.743 1.8C416.02 2.06667 416.239 2.376 416.399 2.728C416.559 3.08 416.639 3.45867 416.639 3.864ZM429.906 14.712C429.906 14.3173 429.853 13.9333 429.746 13.56C429.65 13.1867 429.485 12.856 429.25 12.568C429.026 12.2693 428.728 12.0293 428.354 11.848C427.981 11.6667 427.528 11.576 426.994 11.576C426.056 11.576 425.32 11.848 424.786 12.392C424.253 12.9253 423.901 13.6987 423.73 14.712H429.906ZM423.666 17.592C423.826 18.9787 424.248 19.9867 424.93 20.616C425.613 21.2347 426.493 21.544 427.57 21.544C428.146 21.544 428.642 21.4747 429.058 21.336C429.474 21.1973 429.842 21.0427 430.162 20.872C430.493 20.7013 430.792 20.5467 431.058 20.408C431.336 20.2693 431.624 20.2 431.922 20.2C432.317 20.2 432.616 20.344 432.818 20.632L434.258 22.408C433.746 22.9947 433.192 23.4747 432.594 23.848C432.008 24.2107 431.4 24.4987 430.77 24.712C430.152 24.9147 429.528 25.0533 428.898 25.128C428.28 25.2133 427.688 25.256 427.122 25.256C425.96 25.256 424.866 25.0693 423.842 24.696C422.829 24.312 421.938 23.7467 421.17 23C420.413 22.2533 419.81 21.3253 419.362 20.216C418.925 19.1067 418.706 17.816 418.706 16.344C418.706 15.2347 418.893 14.184 419.266 13.192C419.65 12.2 420.194 11.3307 420.898 10.584C421.613 9.83733 422.472 9.24533 423.474 8.808C424.488 8.37067 425.629 8.152 426.898 8.152C427.997 8.152 429 8.32267 429.906 8.664C430.824 9.00533 431.608 9.50133 432.258 10.152C432.92 10.8027 433.432 11.6027 433.794 12.552C434.168 13.4907 434.354 14.5573 434.354 15.752C434.354 16.1253 434.338 16.4293 434.306 16.664C434.274 16.8987 434.216 17.0853 434.13 17.224C434.045 17.3627 433.928 17.4587 433.778 17.512C433.64 17.5653 433.458 17.592 433.234 17.592H423.666ZM446.9 12.856C446.527 12.44 446.122 12.152 445.684 11.992C445.247 11.8213 444.788 11.736 444.308 11.736C443.85 11.736 443.428 11.8267 443.044 12.008C442.66 12.1893 442.324 12.4827 442.036 12.888C441.759 13.2827 441.54 13.8 441.38 14.44C441.22 15.08 441.14 15.8533 441.14 16.76C441.14 17.6347 441.204 18.3707 441.332 18.968C441.46 19.5653 441.636 20.0507 441.86 20.424C442.095 20.7867 442.372 21.048 442.692 21.208C443.012 21.368 443.37 21.448 443.764 21.448C444.127 21.448 444.452 21.416 444.74 21.352C445.039 21.2773 445.311 21.176 445.556 21.048C445.802 20.92 446.031 20.76 446.244 20.568C446.468 20.3653 446.687 20.136 446.9 19.88V12.856ZM451.86 1.048V25H448.788C448.17 25 447.764 24.7227 447.572 24.168L447.188 22.904C446.858 23.256 446.511 23.576 446.148 23.864C445.786 24.152 445.391 24.4027 444.964 24.616C444.548 24.8187 444.095 24.9733 443.604 25.08C443.124 25.1973 442.602 25.256 442.036 25.256C441.172 25.256 440.372 25.064 439.636 24.68C438.9 24.296 438.266 23.7413 437.732 23.016C437.199 22.2907 436.778 21.4053 436.468 20.36C436.17 19.304 436.02 18.104 436.02 16.76C436.02 15.5227 436.191 14.376 436.532 13.32C436.874 12.2533 437.354 11.336 437.972 10.568C438.602 9.78933 439.354 9.18133 440.228 8.744C441.103 8.30667 442.068 8.088 443.124 8.088C443.988 8.088 444.714 8.21067 445.3 8.456C445.887 8.70133 446.42 9.032 446.9 9.448V1.048H451.86ZM467.69 8.408V25H462.73V8.408H467.69ZM468.202 3.864C468.202 4.25867 468.122 4.632 467.962 4.984C467.802 5.32533 467.583 5.62933 467.306 5.896C467.028 6.152 466.703 6.36 466.33 6.52C465.967 6.66933 465.578 6.744 465.161 6.744C464.756 6.744 464.378 6.66933 464.026 6.52C463.674 6.36 463.359 6.152 463.082 5.896C462.815 5.62933 462.602 5.32533 462.442 4.984C462.292 4.632 462.218 4.25867 462.218 3.864C462.218 3.45867 462.292 3.08 462.442 2.728C462.602 2.376 462.815 2.06667 463.082 1.8C463.359 1.53333 463.674 1.32533 464.026 1.176C464.378 1.02667 464.756 0.952 465.161 0.952C465.578 0.952 465.967 1.02667 466.33 1.176C466.703 1.32533 467.028 1.53333 467.306 1.8C467.583 2.06667 467.802 2.376 467.962 2.728C468.122 3.08 468.202 3.45867 468.202 3.864ZM475.725 10.2C476.045 9.90133 476.375 9.624 476.717 9.368C477.058 9.112 477.421 8.89867 477.805 8.728C478.199 8.54667 478.621 8.408 479.069 8.312C479.527 8.20533 480.023 8.152 480.557 8.152C481.463 8.152 482.263 8.312 482.957 8.632C483.661 8.94133 484.253 9.37867 484.733 9.944C485.213 10.4987 485.575 11.1653 485.821 11.944C486.066 12.712 486.189 13.5493 486.189 14.456V25H481.229V14.456C481.229 13.6453 481.042 13.016 480.669 12.568C480.295 12.1093 479.746 11.88 479.021 11.88C478.477 11.88 477.965 11.9973 477.485 12.232C477.015 12.456 476.557 12.7653 476.109 13.16V25H471.149V8.408H474.221C474.839 8.408 475.245 8.68533 475.437 9.24L475.725 10.2ZM285.472 58.92C286.187 58.92 286.768 58.8293 287.216 58.648C287.675 58.4667 288.032 58.232 288.288 57.944C288.544 57.656 288.72 57.3307 288.816 56.968C288.912 56.6053 288.96 56.2373 288.96 55.864C288.96 55.4373 288.901 55.0533 288.784 54.712C288.677 54.3707 288.485 54.0827 288.208 53.848C287.941 53.6133 287.584 53.432 287.136 53.304C286.688 53.176 286.123 53.112 285.44 53.112H281.664V58.92H285.472ZM281.664 43.736V49.496H284.48C285.077 49.496 285.616 49.4533 286.096 49.368C286.576 49.2827 286.981 49.1333 287.312 48.92C287.653 48.7067 287.909 48.4133 288.08 48.04C288.261 47.6667 288.352 47.1973 288.352 46.632C288.352 46.0773 288.283 45.6187 288.144 45.256C288.005 44.8827 287.792 44.584 287.504 44.36C287.216 44.136 286.848 43.976 286.4 43.88C285.963 43.784 285.44 43.736 284.832 43.736H281.664ZM284.832 39.688C286.443 39.688 287.813 39.8373 288.944 40.136C290.075 40.4347 290.997 40.856 291.712 41.4C292.427 41.944 292.944 42.6053 293.264 43.384C293.595 44.1627 293.76 45.032 293.76 45.992C293.76 46.5147 293.685 47.0213 293.536 47.512C293.387 47.992 293.152 48.4453 292.832 48.872C292.512 49.288 292.101 49.672 291.6 50.024C291.099 50.376 290.496 50.68 289.792 50.936C291.328 51.3093 292.464 51.912 293.2 52.744C293.936 53.576 294.304 54.6533 294.304 55.976C294.304 56.968 294.112 57.8907 293.728 58.744C293.344 59.5973 292.779 60.344 292.032 60.984C291.296 61.6133 290.384 62.1093 289.296 62.472C288.208 62.824 286.965 63 285.568 63H276.256V39.688H284.832ZM318.046 39.688V63H315.23C314.814 63 314.462 62.936 314.174 62.808C313.896 62.6693 313.619 62.4347 313.342 62.104L302.35 48.2C302.392 48.616 302.419 49.0213 302.43 49.416C302.451 49.8 302.462 50.1627 302.462 50.504V63H297.694V39.688H300.542C300.776 39.688 300.974 39.6987 301.134 39.72C301.294 39.7413 301.438 39.784 301.566 39.848C301.694 39.9013 301.816 39.9813 301.934 40.088C302.051 40.1947 302.184 40.3387 302.334 40.52L313.422 54.52C313.368 54.072 313.331 53.64 313.31 53.224C313.288 52.7973 313.278 52.3973 313.278 52.024V39.688H318.046ZM348.777 39.688V63H344.009V49.592C344.009 49.2827 344.014 48.9467 344.025 48.584C344.046 48.2213 344.078 47.8533 344.121 47.48L337.929 59.464C337.737 59.8373 337.475 60.12 337.145 60.312C336.825 60.504 336.457 60.6 336.041 60.6H335.305C334.889 60.6 334.515 60.504 334.185 60.312C333.865 60.12 333.609 59.8373 333.417 59.464L327.225 47.448C327.257 47.832 327.283 48.2107 327.305 48.584C327.326 48.9467 327.337 49.2827 327.337 49.592V63H322.569V39.688H326.697C326.931 39.688 327.134 39.6933 327.305 39.704C327.486 39.7147 327.646 39.7467 327.785 39.8C327.923 39.8533 328.046 39.9387 328.153 40.056C328.27 40.1627 328.382 40.3173 328.489 40.52L334.489 52.344C334.702 52.7493 334.905 53.1707 335.097 53.608C335.299 54.0453 335.491 54.4933 335.673 54.952C335.854 54.4827 336.041 54.024 336.233 53.576C336.435 53.128 336.649 52.7013 336.873 52.296L342.857 40.52C342.963 40.3173 343.07 40.1627 343.177 40.056C343.294 39.9387 343.422 39.8533 343.561 39.8C343.699 39.7467 343.854 39.7147 344.025 39.704C344.206 39.6933 344.414 39.688 344.649 39.688H348.777ZM358.727 63H353.287V39.688H358.727V63ZM379.977 43.976H373.417V63H368.009V43.976H361.449V39.688H379.977V43.976ZM397.146 56.248C396.154 56.2907 395.338 56.376 394.698 56.504C394.058 56.632 393.552 56.792 393.178 56.984C392.805 57.176 392.544 57.3947 392.394 57.64C392.256 57.8853 392.186 58.152 392.186 58.44C392.186 59.0053 392.341 59.4053 392.65 59.64C392.96 59.864 393.413 59.976 394.01 59.976C394.65 59.976 395.21 59.864 395.69 59.64C396.17 59.416 396.656 59.0533 397.146 58.552V56.248ZM388.218 48.712C389.221 47.8267 390.33 47.1707 391.546 46.744C392.773 46.3067 394.085 46.088 395.482 46.088C396.485 46.088 397.386 46.2533 398.186 46.584C398.997 46.904 399.68 47.3573 400.234 47.944C400.8 48.52 401.232 49.208 401.53 50.008C401.829 50.808 401.978 51.6827 401.978 52.632V63H399.706C399.237 63 398.88 62.936 398.634 62.808C398.4 62.68 398.202 62.4133 398.042 62.008L397.69 61.096C397.274 61.448 396.874 61.7573 396.49 62.024C396.106 62.2907 395.706 62.52 395.29 62.712C394.885 62.8933 394.448 63.0267 393.978 63.112C393.52 63.208 393.008 63.256 392.442 63.256C391.685 63.256 390.997 63.16 390.378 62.968C389.76 62.7653 389.232 62.472 388.794 62.088C388.368 61.704 388.037 61.2293 387.802 60.664C387.568 60.088 387.45 59.4267 387.45 58.68C387.45 58.0827 387.6 57.48 387.898 56.872C388.197 56.2533 388.714 55.6933 389.45 55.192C390.186 54.68 391.178 54.2533 392.426 53.912C393.674 53.5707 395.248 53.3787 397.146 53.336V52.632C397.146 51.6613 396.944 50.9627 396.538 50.536C396.144 50.0987 395.578 49.88 394.842 49.88C394.256 49.88 393.776 49.944 393.402 50.072C393.029 50.2 392.693 50.344 392.394 50.504C392.106 50.664 391.824 50.808 391.546 50.936C391.269 51.064 390.938 51.128 390.554 51.128C390.213 51.128 389.925 51.0427 389.69 50.872C389.456 50.7013 389.264 50.4987 389.114 50.264L388.218 48.712ZM410.835 63.256C410.045 63.256 409.347 63.144 408.739 62.92C408.141 62.6853 407.635 62.36 407.219 61.944C406.813 61.5173 406.504 61.0053 406.291 60.408C406.077 59.8107 405.971 59.144 405.971 58.408V49.832H404.563C404.307 49.832 404.088 49.752 403.907 49.592C403.725 49.4213 403.635 49.176 403.635 48.856V46.92L406.275 46.408L407.251 42.36C407.379 41.848 407.741 41.592 408.339 41.592H410.931V46.44H415.043V49.832H410.931V58.072C410.931 58.456 411.021 58.776 411.203 59.032C411.395 59.2773 411.667 59.4 412.019 59.4C412.2 59.4 412.349 59.384 412.467 59.352C412.595 59.3093 412.701 59.2667 412.787 59.224C412.883 59.1707 412.968 59.128 413.043 59.096C413.128 59.0533 413.224 59.032 413.331 59.032C413.48 59.032 413.597 59.0693 413.683 59.144C413.779 59.208 413.875 59.3147 413.971 59.464L415.475 61.816C414.835 62.296 414.115 62.6587 413.315 62.904C412.515 63.1387 411.688 63.256 410.835 63.256ZM438.522 58.52C439.056 58.52 439.477 58.6693 439.786 58.968C440.096 59.256 440.25 59.64 440.25 60.12V63H423.866V61.4C423.866 61.0907 423.93 60.76 424.058 60.408C424.186 60.056 424.41 59.736 424.73 59.448L431.45 52.68C432.026 52.104 432.528 51.5547 432.954 51.032C433.381 50.5093 433.733 49.9973 434.01 49.496C434.288 48.984 434.496 48.4773 434.634 47.976C434.773 47.464 434.842 46.9253 434.842 46.36C434.842 45.432 434.618 44.7227 434.17 44.232C433.733 43.7307 433.061 43.48 432.154 43.48C431.418 43.48 430.794 43.6773 430.282 44.072C429.781 44.456 429.434 44.936 429.242 45.512C429.018 46.0987 428.725 46.488 428.362 46.68C428 46.872 427.482 46.9147 426.81 46.808L424.186 46.344C424.357 45.1813 424.682 44.168 425.162 43.304C425.653 42.44 426.256 41.72 426.97 41.144C427.696 40.568 428.522 40.1413 429.45 39.864C430.378 39.576 431.376 39.432 432.442 39.432C433.594 39.432 434.629 39.6027 435.546 39.944C436.474 40.2747 437.264 40.7387 437.914 41.336C438.565 41.9333 439.061 42.648 439.402 43.48C439.754 44.3013 439.93 45.208 439.93 46.2C439.93 47.0533 439.808 47.8427 439.562 48.568C439.328 49.2933 439.002 49.9867 438.586 50.648C438.17 51.2987 437.685 51.9333 437.13 52.552C436.586 53.16 436.005 53.7787 435.386 54.408L430.826 59.08C431.413 58.8987 431.994 58.76 432.57 58.664C433.146 58.568 433.68 58.52 434.17 58.52H438.522ZM456.539 49.128H457.403C458.203 49.128 458.779 48.8773 459.131 48.376L464.379 40.76C464.688 40.3547 465.019 40.0773 465.371 39.928C465.734 39.768 466.182 39.688 466.715 39.688H471.419L464.507 49.112C464.016 49.7627 463.488 50.232 462.923 50.52C463.328 50.6693 463.696 50.8773 464.027 51.144C464.358 51.4107 464.667 51.7573 464.955 52.184L471.995 63H467.163C466.854 63 466.587 62.9787 466.363 62.936C466.15 62.8933 465.963 62.8293 465.803 62.744C465.643 62.6587 465.504 62.5573 465.387 62.44C465.27 62.312 465.158 62.168 465.051 62.008L459.771 53.896C459.579 53.5973 459.334 53.3893 459.035 53.272C458.747 53.144 458.352 53.08 457.851 53.08H456.539V63H451.131V39.688H456.539V49.128ZM486.045 54.088L483.885 47.704C483.725 47.2987 483.554 46.824 483.373 46.28C483.191 45.7253 483.01 45.128 482.829 44.488C482.669 45.1387 482.498 45.7413 482.317 46.296C482.135 46.8507 481.965 47.3307 481.805 47.736L479.661 54.088H486.045ZM494.637 63H490.445C489.975 63 489.597 62.8933 489.309 62.68C489.021 62.456 488.802 62.1733 488.653 61.832L487.277 57.768H478.413L477.037 61.832C476.919 62.1307 476.706 62.4027 476.397 62.648C476.098 62.8827 475.725 63 475.277 63H471.053L480.077 39.688H485.613L494.637 63ZM504.059 50.648C504.795 50.648 505.419 50.5573 505.931 50.376C506.453 50.184 506.88 49.9227 507.211 49.592C507.541 49.2613 507.781 48.8773 507.931 48.44C508.08 47.992 508.155 47.512 508.155 47C508.155 45.976 507.819 45.176 507.147 44.6C506.485 44.024 505.456 43.736 504.059 43.736H501.883V50.648H504.059ZM515.547 63H510.651C509.744 63 509.093 62.6587 508.699 61.976L504.827 55.208C504.645 54.92 504.443 54.712 504.219 54.584C503.995 54.4453 503.675 54.376 503.259 54.376H501.883V63H496.475V39.688H504.059C505.744 39.688 507.179 39.864 508.363 40.216C509.557 40.5573 510.528 41.0373 511.275 41.656C512.032 42.2747 512.581 43.0053 512.923 43.848C513.264 44.6907 513.435 45.608 513.435 46.6C513.435 47.3573 513.333 48.072 513.131 48.744C512.928 49.416 512.629 50.04 512.235 50.616C511.84 51.1813 511.349 51.688 510.763 52.136C510.187 52.584 509.52 52.952 508.763 53.24C509.115 53.4213 509.445 53.6507 509.755 53.928C510.064 54.1947 510.341 54.5147 510.587 54.888L515.547 63ZM534.128 58.92C534.843 58.92 535.424 58.8293 535.872 58.648C536.331 58.4667 536.688 58.232 536.944 57.944C537.2 57.656 537.376 57.3307 537.472 56.968C537.568 56.6053 537.616 56.2373 537.616 55.864C537.616 55.4373 537.558 55.0533 537.44 54.712C537.334 54.3707 537.142 54.0827 536.864 53.848C536.598 53.6133 536.24 53.432 535.792 53.304C535.344 53.176 534.779 53.112 534.096 53.112H530.32V58.92H534.128ZM530.32 43.736V49.496H533.136C533.734 49.496 534.272 49.4533 534.752 49.368C535.232 49.2827 535.638 49.1333 535.968 48.92C536.31 48.7067 536.566 48.4133 536.736 48.04C536.918 47.6667 537.008 47.1973 537.008 46.632C537.008 46.0773 536.939 45.6187 536.8 45.256C536.662 44.8827 536.448 44.584 536.16 44.36C535.872 44.136 535.504 43.976 535.056 43.88C534.619 43.784 534.096 43.736 533.488 43.736H530.32ZM533.488 39.688C535.099 39.688 536.47 39.8373 537.6 40.136C538.731 40.4347 539.654 40.856 540.368 41.4C541.083 41.944 541.6 42.6053 541.92 43.384C542.251 44.1627 542.416 45.032 542.416 45.992C542.416 46.5147 542.342 47.0213 542.192 47.512C542.043 47.992 541.808 48.4453 541.488 48.872C541.168 49.288 540.758 49.672 540.256 50.024C539.755 50.376 539.152 50.68 538.448 50.936C539.984 51.3093 541.12 51.912 541.856 52.744C542.592 53.576 542.96 54.6533 542.96 55.976C542.96 56.968 542.768 57.8907 542.384 58.744C542 59.5973 541.435 60.344 540.688 60.984C539.952 61.6133 539.04 62.1093 537.952 62.472C536.864 62.824 535.622 63 534.224 63H524.912V39.688H533.488ZM550.069 48.2C550.389 47.9013 550.719 47.624 551.061 47.368C551.402 47.112 551.765 46.8987 552.149 46.728C552.543 46.5467 552.965 46.408 553.413 46.312C553.871 46.2053 554.367 46.152 554.901 46.152C555.807 46.152 556.607 46.312 557.301 46.632C558.005 46.9413 558.597 47.3787 559.077 47.944C559.557 48.4987 559.919 49.1653 560.165 49.944C560.41 50.712 560.533 51.5493 560.533 52.456V63H555.573V52.456C555.573 51.6453 555.386 51.016 555.013 50.568C554.639 50.1093 554.09 49.88 553.365 49.88C552.821 49.88 552.309 49.9973 551.829 50.232C551.359 50.456 550.901 50.7653 550.453 51.16V63H545.493V46.408H548.565C549.183 46.408 549.589 46.6853 549.781 47.24L550.069 48.2Z" fill="#1A0D76"/>
<path d="M751.816 22.416V26H738.536V22.416H743.016V10.656C743.016 10.3573 743.021 10.0587 743.032 9.76C743.043 9.45067 743.059 9.14133 743.08 8.832L740.424 11.04C740.189 11.2213 739.955 11.3333 739.72 11.376C739.496 11.408 739.283 11.408 739.08 11.376C738.877 11.3333 738.696 11.264 738.536 11.168C738.376 11.0613 738.259 10.9547 738.184 10.848L736.616 8.768L743.88 2.672H747.976V22.416H751.816ZM765.787 13.04C765.659 13.2427 765.52 13.3867 765.371 13.472C765.232 13.5573 765.051 13.6 764.827 13.6C764.592 13.6 764.357 13.552 764.123 13.456C763.888 13.3493 763.632 13.2373 763.355 13.12C763.088 13.0027 762.784 12.896 762.443 12.8C762.101 12.6933 761.712 12.64 761.275 12.64C760.645 12.64 760.16 12.7627 759.819 13.008C759.488 13.2427 759.323 13.5733 759.323 14C759.323 14.3093 759.429 14.5653 759.643 14.768C759.867 14.9707 760.16 15.152 760.523 15.312C760.885 15.4613 761.296 15.6053 761.755 15.744C762.213 15.8827 762.683 16.0373 763.163 16.208C763.643 16.3787 764.112 16.5813 764.571 16.816C765.029 17.04 765.44 17.3227 765.803 17.664C766.165 17.9947 766.453 18.4 766.667 18.88C766.891 19.36 767.003 19.936 767.003 20.608C767.003 21.4293 766.853 22.1867 766.555 22.88C766.256 23.5733 765.808 24.1707 765.211 24.672C764.624 25.1733 763.893 25.5627 763.019 25.84C762.155 26.1173 761.157 26.256 760.027 26.256C759.461 26.256 758.896 26.2027 758.331 26.096C757.765 25.9893 757.216 25.8453 756.683 25.664C756.16 25.4827 755.675 25.2693 755.227 25.024C754.779 24.768 754.395 24.496 754.075 24.208L755.227 22.384C755.355 22.1707 755.515 22.0053 755.707 21.888C755.909 21.76 756.165 21.696 756.475 21.696C756.763 21.696 757.019 21.76 757.243 21.888C757.477 22.016 757.728 22.1547 757.995 22.304C758.261 22.4533 758.571 22.592 758.923 22.72C759.285 22.848 759.739 22.912 760.283 22.912C760.667 22.912 760.992 22.8747 761.259 22.8C761.525 22.7147 761.739 22.6027 761.899 22.464C762.059 22.3253 762.176 22.1707 762.251 22C762.325 21.8293 762.363 21.6533 762.363 21.472C762.363 21.1413 762.251 20.8693 762.027 20.656C761.803 20.4427 761.509 20.2613 761.147 20.112C760.784 19.952 760.368 19.808 759.899 19.68C759.44 19.5413 758.971 19.3867 758.491 19.216C758.011 19.0453 757.536 18.8427 757.067 18.608C756.608 18.3627 756.197 18.0587 755.835 17.696C755.472 17.3227 755.179 16.8693 754.955 16.336C754.731 15.8027 754.618 15.1573 754.618 14.4C754.618 13.696 754.752 13.0293 755.019 12.4C755.296 11.76 755.707 11.2 756.251 10.72C756.795 10.24 757.477 9.86133 758.299 9.584C759.12 9.296 760.08 9.152 761.179 9.152C761.776 9.152 762.352 9.20533 762.907 9.312C763.472 9.41867 764 9.568 764.491 9.76C764.981 9.952 765.429 10.1813 765.835 10.448C766.24 10.704 766.597 10.9867 766.907 11.296L765.787 13.04ZM775.429 26.256C774.639 26.256 773.941 26.144 773.333 25.92C772.735 25.6853 772.229 25.36 771.812 24.944C771.407 24.5173 771.098 24.0053 770.885 23.408C770.671 22.8107 770.565 22.144 770.565 21.408V12.832H769.157C768.901 12.832 768.682 12.752 768.501 12.592C768.319 12.4213 768.229 12.176 768.229 11.856V9.92L770.869 9.408L771.845 5.36C771.973 4.848 772.335 4.592 772.933 4.592H775.525V9.44H779.637V12.832H775.525V21.072C775.525 21.456 775.615 21.776 775.797 22.032C775.989 22.2773 776.261 22.4 776.613 22.4C776.794 22.4 776.943 22.384 777.061 22.352C777.189 22.3093 777.295 22.2667 777.381 22.224C777.477 22.1707 777.562 22.128 777.637 22.096C777.722 22.0533 777.818 22.032 777.925 22.032C778.074 22.032 778.191 22.0693 778.277 22.144C778.373 22.208 778.469 22.3147 778.565 22.464L780.069 24.816C779.429 25.296 778.709 25.6587 777.909 25.904C777.109 26.1387 776.282 26.256 775.429 26.256ZM798.972 21.92C799.687 21.92 800.268 21.8293 800.716 21.648C801.175 21.4667 801.532 21.232 801.788 20.944C802.044 20.656 802.22 20.3307 802.316 19.968C802.412 19.6053 802.46 19.2373 802.46 18.864C802.46 18.4373 802.401 18.0533 802.284 17.712C802.177 17.3707 801.985 17.0827 801.708 16.848C801.441 16.6133 801.084 16.432 800.636 16.304C800.188 16.176 799.623 16.112 798.94 16.112H795.164V21.92H798.972ZM795.164 6.736V12.496H797.98C798.577 12.496 799.116 12.4533 799.596 12.368C800.076 12.2827 800.481 12.1333 800.812 11.92C801.153 11.7067 801.409 11.4133 801.58 11.04C801.761 10.6667 801.852 10.1973 801.852 9.632C801.852 9.07733 801.783 8.61867 801.644 8.256C801.505 7.88267 801.292 7.584 801.004 7.36C800.716 7.136 800.348 6.976 799.9 6.88C799.463 6.784 798.94 6.736 798.332 6.736H795.164ZM798.332 2.688C799.943 2.688 801.313 2.83733 802.444 3.136C803.575 3.43467 804.497 3.856 805.212 4.4C805.927 4.944 806.444 5.60533 806.764 6.384C807.095 7.16267 807.26 8.032 807.26 8.992C807.26 9.51467 807.185 10.0213 807.036 10.512C806.887 10.992 806.652 11.4453 806.332 11.872C806.012 12.288 805.601 12.672 805.1 13.024C804.599 13.376 803.996 13.68 803.292 13.936C804.828 14.3093 805.964 14.912 806.7 15.744C807.436 16.576 807.804 17.6533 807.804 18.976C807.804 19.968 807.612 20.8907 807.228 21.744C806.844 22.5973 806.279 23.344 805.532 23.984C804.796 24.6133 803.884 25.1093 802.796 25.472C801.708 25.824 800.465 26 799.068 26H789.756V2.688H798.332ZM818.928 19.248C817.936 19.2907 817.12 19.376 816.48 19.504C815.84 19.632 815.333 19.792 814.96 19.984C814.586 20.176 814.325 20.3947 814.176 20.64C814.037 20.8853 813.968 21.152 813.968 21.44C813.968 22.0053 814.122 22.4053 814.432 22.64C814.741 22.864 815.194 22.976 815.792 22.976C816.432 22.976 816.992 22.864 817.472 22.64C817.952 22.416 818.437 22.0533 818.928 21.552V19.248ZM810 11.712C811.002 10.8267 812.112 10.1707 813.328 9.744C814.554 9.30667 815.866 9.088 817.264 9.088C818.266 9.088 819.168 9.25333 819.968 9.584C820.778 9.904 821.461 10.3573 822.016 10.944C822.581 11.52 823.013 12.208 823.312 13.008C823.61 13.808 823.76 14.6827 823.76 15.632V26H821.488C821.018 26 820.661 25.936 820.416 25.808C820.181 25.68 819.984 25.4133 819.824 25.008L819.472 24.096C819.056 24.448 818.656 24.7573 818.272 25.024C817.888 25.2907 817.488 25.52 817.072 25.712C816.666 25.8933 816.229 26.0267 815.76 26.112C815.301 26.208 814.789 26.256 814.224 26.256C813.466 26.256 812.778 26.16 812.16 25.968C811.541 25.7653 811.013 25.472 810.576 25.088C810.149 24.704 809.818 24.2293 809.584 23.664C809.349 23.088 809.232 22.4267 809.232 21.68C809.232 21.0827 809.381 20.48 809.68 19.872C809.978 19.2533 810.496 18.6933 811.232 18.192C811.968 17.68 812.96 17.2533 814.208 16.912C815.456 16.5707 817.029 16.3787 818.928 16.336V15.632C818.928 14.6613 818.725 13.9627 818.32 13.536C817.925 13.0987 817.36 12.88 816.624 12.88C816.037 12.88 815.557 12.944 815.184 13.072C814.81 13.2 814.474 13.344 814.176 13.504C813.888 13.664 813.605 13.808 813.328 13.936C813.05 14.064 812.72 14.128 812.336 14.128C811.994 14.128 811.706 14.0427 811.472 13.872C811.237 13.7013 811.045 13.4987 810.896 13.264L810 11.712ZM832.616 26.256C831.827 26.256 831.128 26.144 830.52 25.92C829.923 25.6853 829.416 25.36 829 24.944C828.595 24.5173 828.285 24.0053 828.072 23.408C827.859 22.8107 827.752 22.144 827.752 21.408V12.832H826.344C826.088 12.832 825.869 12.752 825.688 12.592C825.507 12.4213 825.416 12.176 825.416 11.856V9.92L828.056 9.408L829.032 5.36C829.16 4.848 829.523 4.592 830.12 4.592H832.712V9.44H836.824V12.832H832.712V21.072C832.712 21.456 832.803 21.776 832.984 22.032C833.176 22.2773 833.448 22.4 833.8 22.4C833.981 22.4 834.131 22.384 834.248 22.352C834.376 22.3093 834.483 22.2667 834.568 22.224C834.664 22.1707 834.749 22.128 834.824 22.096C834.909 22.0533 835.005 22.032 835.112 22.032C835.261 22.032 835.379 22.0693 835.464 22.144C835.56 22.208 835.656 22.3147 835.752 22.464L837.256 24.816C836.616 25.296 835.896 25.6587 835.096 25.904C834.296 26.1387 833.469 26.256 832.616 26.256ZM850.997 13.344C850.848 13.5253 850.704 13.6693 850.565 13.776C850.426 13.8827 850.229 13.936 849.973 13.936C849.728 13.936 849.504 13.8773 849.301 13.76C849.109 13.6427 848.89 13.5147 848.645 13.376C848.4 13.2267 848.112 13.0933 847.781 12.976C847.45 12.8587 847.04 12.8 846.549 12.8C845.941 12.8 845.413 12.912 844.965 13.136C844.528 13.36 844.165 13.68 843.877 14.096C843.589 14.512 843.376 15.024 843.237 15.632C843.098 16.2293 843.029 16.9067 843.029 17.664C843.029 19.2533 843.333 20.4747 843.941 21.328C844.56 22.1813 845.408 22.608 846.485 22.608C847.061 22.608 847.514 22.5387 847.845 22.4C848.186 22.2507 848.474 22.0907 848.709 21.92C848.944 21.7387 849.157 21.5733 849.349 21.424C849.552 21.2747 849.802 21.2 850.101 21.2C850.496 21.2 850.794 21.344 850.997 21.632L852.437 23.408C851.925 23.9947 851.386 24.4747 850.821 24.848C850.256 25.2107 849.674 25.4987 849.077 25.712C848.49 25.9147 847.898 26.0533 847.301 26.128C846.704 26.2133 846.122 26.256 845.557 26.256C844.544 26.256 843.573 26.064 842.645 25.68C841.728 25.296 840.917 24.7413 840.213 24.016C839.52 23.28 838.965 22.3787 838.549 21.312C838.144 20.2453 837.941 19.0293 837.941 17.664C837.941 16.4693 838.117 15.3547 838.469 14.32C838.832 13.2747 839.36 12.3733 840.053 11.616C840.757 10.848 841.621 10.2453 842.645 9.808C843.68 9.37067 844.874 9.152 846.229 9.152C847.53 9.152 848.672 9.36 849.653 9.776C850.634 10.192 851.52 10.8 852.309 11.6L850.997 13.344ZM859.328 10.864C859.925 10.352 860.57 9.94133 861.264 9.632C861.968 9.312 862.805 9.152 863.776 9.152C864.682 9.152 865.482 9.312 866.176 9.632C866.88 9.94133 867.472 10.3787 867.952 10.944C868.432 11.4987 868.794 12.1653 869.04 12.944C869.285 13.712 869.408 14.5493 869.408 15.456V26H864.448V15.456C864.448 14.6453 864.261 14.016 863.888 13.568C863.514 13.1093 862.965 12.88 862.24 12.88C861.696 12.88 861.184 12.9973 860.704 13.232C860.234 13.456 859.776 13.7653 859.328 14.16V26H854.368V2.048H859.328V10.864ZM887.672 9.152C888.93 9.152 890.077 9.34933 891.112 9.744C892.146 10.1387 893.032 10.704 893.768 11.44C894.514 12.176 895.09 13.072 895.496 14.128C895.912 15.1733 896.12 16.352 896.12 17.664C896.12 18.9867 895.912 20.1813 895.496 21.248C895.09 22.304 894.514 23.2053 893.768 23.952C893.032 24.688 892.146 25.2587 891.112 25.664C890.077 26.0587 888.93 26.256 887.672 26.256C886.402 26.256 885.245 26.0587 884.2 25.664C883.165 25.2587 882.269 24.688 881.512 23.952C880.765 23.2053 880.184 22.304 879.768 21.248C879.362 20.1813 879.16 18.9867 879.16 17.664C879.16 16.352 879.362 15.1733 879.768 14.128C880.184 13.072 880.765 12.176 881.512 11.44C882.269 10.704 883.165 10.1387 884.2 9.744C885.245 9.34933 886.402 9.152 887.672 9.152ZM887.672 22.576C888.813 22.576 889.65 22.176 890.184 21.376C890.728 20.5653 891 19.3387 891 17.696C891 16.0533 890.728 14.832 890.184 14.032C889.65 13.232 888.813 12.832 887.672 12.832C886.498 12.832 885.64 13.232 885.096 14.032C884.552 14.832 884.28 16.0533 884.28 17.696C884.28 19.3387 884.552 20.5653 885.096 21.376C885.64 22.176 886.498 22.576 887.672 22.576ZM899.381 26V12.816L898.293 12.592C897.919 12.5067 897.615 12.3733 897.381 12.192C897.157 12.0107 897.045 11.744 897.045 11.392V9.44H899.381V8.496C899.381 7.54667 899.53 6.688 899.829 5.92C900.138 5.152 900.575 4.496 901.141 3.952C901.717 3.408 902.415 2.98667 903.237 2.688C904.058 2.38933 904.991 2.24 906.037 2.24C906.442 2.24 906.815 2.26667 907.157 2.32C907.498 2.36267 907.855 2.43733 908.229 2.544L908.133 4.96C908.122 5.13067 908.079 5.27467 908.005 5.392C907.93 5.49866 907.829 5.58933 907.701 5.664C907.583 5.728 907.455 5.776 907.317 5.808C907.178 5.84 907.039 5.856 906.901 5.856C906.463 5.856 906.074 5.89867 905.733 5.984C905.391 6.06933 905.103 6.224 904.869 6.448C904.645 6.66133 904.474 6.94933 904.357 7.312C904.239 7.664 904.181 8.112 904.181 8.656V9.44H908.069V12.832H904.341V26H899.381ZM926.441 21.92C927.155 21.92 927.737 21.8293 928.185 21.648C928.643 21.4667 929.001 21.232 929.257 20.944C929.513 20.656 929.689 20.3307 929.785 19.968C929.881 19.6053 929.929 19.2373 929.929 18.864C929.929 18.4373 929.87 18.0533 929.753 17.712C929.646 17.3707 929.454 17.0827 929.177 16.848C928.91 16.6133 928.553 16.432 928.105 16.304C927.657 16.176 927.091 16.112 926.409 16.112H922.633V21.92H926.441ZM922.633 6.736V12.496H925.449C926.046 12.496 926.585 12.4533 927.065 12.368C927.545 12.2827 927.95 12.1333 928.281 11.92C928.622 11.7067 928.878 11.4133 929.049 11.04C929.23 10.6667 929.321 10.1973 929.321 9.632C929.321 9.07733 929.251 8.61867 929.113 8.256C928.974 7.88267 928.761 7.584 928.473 7.36C928.185 7.136 927.817 6.976 927.369 6.88C926.931 6.784 926.409 6.736 925.801 6.736H922.633ZM925.801 2.688C927.411 2.688 928.782 2.83733 929.913 3.136C931.043 3.43467 931.966 3.856 932.681 4.4C933.395 4.944 933.913 5.60533 934.233 6.384C934.563 7.16267 934.729 8.032 934.729 8.992C934.729 9.51467 934.654 10.0213 934.505 10.512C934.355 10.992 934.121 11.4453 933.801 11.872C933.481 12.288 933.07 12.672 932.569 13.024C932.067 13.376 931.465 13.68 930.761 13.936C932.297 14.3093 933.433 14.912 934.169 15.744C934.905 16.576 935.273 17.6533 935.273 18.976C935.273 19.968 935.081 20.8907 934.697 21.744C934.313 22.5973 933.747 23.344 933.001 23.984C932.265 24.6133 931.353 25.1093 930.265 25.472C929.177 25.824 927.934 26 926.537 26H917.225V2.688H925.801ZM959.014 2.688V26H956.198C955.782 26 955.43 25.936 955.142 25.808C954.865 25.6693 954.588 25.4347 954.31 25.104L943.318 11.2C943.361 11.616 943.388 12.0213 943.398 12.416C943.42 12.8 943.43 13.1627 943.43 13.504V26H938.662V2.688H941.51C941.745 2.688 941.942 2.69867 942.102 2.72C942.262 2.74133 942.406 2.784 942.534 2.848C942.662 2.90133 942.785 2.98133 942.902 3.088C943.02 3.19467 943.153 3.33867 943.302 3.52L954.39 17.52C954.337 17.072 954.3 16.64 954.278 16.224C954.257 15.7973 954.246 15.3973 954.246 15.024V2.688H959.014ZM989.745 2.688V26H984.977V12.592C984.977 12.2827 984.983 11.9467 984.993 11.584C985.015 11.2213 985.047 10.8533 985.089 10.48L978.897 22.464C978.705 22.8373 978.444 23.12 978.113 23.312C977.793 23.504 977.425 23.6 977.009 23.6H976.273C975.857 23.6 975.484 23.504 975.153 23.312C974.833 23.12 974.577 22.8373 974.385 22.464L968.193 10.448C968.225 10.832 968.252 11.2107 968.273 11.584C968.295 11.9467 968.305 12.2827 968.305 12.592V26H963.537V2.688H967.665C967.9 2.688 968.103 2.69333 968.273 2.704C968.455 2.71467 968.615 2.74667 968.753 2.8C968.892 2.85333 969.015 2.93867 969.121 3.056C969.239 3.16267 969.351 3.31733 969.457 3.52L975.457 15.344C975.671 15.7493 975.873 16.1707 976.065 16.608C976.268 17.0453 976.46 17.4933 976.641 17.952C976.823 17.4827 977.009 17.024 977.201 16.576C977.404 16.128 977.617 15.7013 977.841 15.296L983.825 3.52C983.932 3.31733 984.039 3.16267 984.145 3.056C984.263 2.93867 984.391 2.85333 984.529 2.8C984.668 2.74667 984.823 2.71467 984.993 2.704C985.175 2.69333 985.383 2.688 985.617 2.688H989.745ZM999.696 26H994.256V2.688H999.696V26ZM1020.95 6.976H1014.39V26H1008.98V6.976H1002.42V2.688H1020.95V6.976ZM1050.48 2.688V26H1047.67C1047.25 26 1046.9 25.936 1046.61 25.808C1046.33 25.6693 1046.06 25.4347 1045.78 25.104L1034.79 11.2C1034.83 11.616 1034.86 12.0213 1034.87 12.416C1034.89 12.8 1034.9 13.1627 1034.9 13.504V26H1030.13V2.688H1032.98C1033.21 2.688 1033.41 2.69867 1033.57 2.72C1033.73 2.74133 1033.88 2.784 1034 2.848C1034.13 2.90133 1034.25 2.98133 1034.37 3.088C1034.49 3.19467 1034.62 3.33867 1034.77 3.52L1045.86 17.52C1045.81 17.072 1045.77 16.64 1045.75 16.224C1045.73 15.7973 1045.72 15.3973 1045.72 15.024V2.688H1050.48ZM1070.72 19.968C1070.85 19.968 1070.97 19.9947 1071.1 20.048C1071.23 20.0907 1071.35 20.1707 1071.47 20.288L1073.61 22.544C1072.68 23.7707 1071.5 24.6987 1070.08 25.328C1068.67 25.9467 1067 26.256 1065.07 26.256C1063.3 26.256 1061.71 25.9573 1060.3 25.36C1058.9 24.752 1057.72 23.92 1056.73 22.864C1055.76 21.7973 1055.02 20.5387 1054.49 19.088C1053.97 17.6267 1053.71 16.0427 1053.71 14.336C1053.71 12.5973 1053.99 11.0027 1054.56 9.552C1055.12 8.09067 1055.92 6.832 1056.94 5.776C1057.97 4.72 1059.19 3.89867 1060.62 3.312C1062.05 2.72533 1063.62 2.432 1065.34 2.432C1066.22 2.432 1067.04 2.512 1067.81 2.672C1068.58 2.82133 1069.31 3.03466 1069.98 3.312C1070.65 3.57867 1071.27 3.904 1071.84 4.288C1072.4 4.672 1072.9 5.088 1073.34 5.536L1071.52 7.984C1071.4 8.13333 1071.26 8.272 1071.1 8.4C1070.94 8.51733 1070.72 8.576 1070.43 8.576C1070.24 8.576 1070.06 8.53333 1069.89 8.448C1069.72 8.36267 1069.53 8.26133 1069.34 8.144C1069.15 8.016 1068.94 7.88267 1068.7 7.744C1068.48 7.59467 1068.21 7.46133 1067.89 7.344C1067.58 7.216 1067.21 7.10933 1066.78 7.024C1066.37 6.93867 1065.88 6.896 1065.31 6.896C1064.41 6.896 1063.59 7.06133 1062.85 7.392C1062.11 7.72267 1061.47 8.208 1060.93 8.848C1060.39 9.47733 1059.98 10.256 1059.68 11.184C1059.39 12.1013 1059.25 13.152 1059.25 14.336C1059.25 15.5307 1059.41 16.592 1059.73 17.52C1060.06 18.448 1060.5 19.232 1061.05 19.872C1061.62 20.5013 1062.28 20.9813 1063.02 21.312C1063.77 21.6427 1064.57 21.808 1065.42 21.808C1065.91 21.808 1066.36 21.7867 1066.77 21.744C1067.17 21.6907 1067.55 21.6107 1067.9 21.504C1068.25 21.3867 1068.58 21.2373 1068.89 21.056C1069.2 20.864 1069.52 20.624 1069.84 20.336C1069.97 20.2293 1070.1 20.144 1070.25 20.08C1070.4 20.0053 1070.56 19.968 1070.72 19.968ZM1091.16 19.968C1091.28 19.968 1091.41 19.9947 1091.54 20.048C1091.67 20.0907 1091.79 20.1707 1091.91 20.288L1094.05 22.544C1093.11 23.7707 1091.93 24.6987 1090.52 25.328C1089.11 25.9467 1087.44 26.256 1085.51 26.256C1083.74 26.256 1082.15 25.9573 1080.74 25.36C1079.34 24.752 1078.15 23.92 1077.17 22.864C1076.2 21.7973 1075.45 20.5387 1074.93 19.088C1074.41 17.6267 1074.15 16.0427 1074.15 14.336C1074.15 12.5973 1074.43 11.0027 1075 9.552C1075.56 8.09067 1076.36 6.832 1077.38 5.776C1078.4 4.72 1079.63 3.89867 1081.06 3.312C1082.49 2.72533 1084.06 2.432 1085.78 2.432C1086.65 2.432 1087.48 2.512 1088.24 2.672C1089.02 2.82133 1089.75 3.03466 1090.42 3.312C1091.09 3.57867 1091.71 3.904 1092.28 4.288C1092.84 4.672 1093.34 5.088 1093.78 5.536L1091.96 7.984C1091.84 8.13333 1091.7 8.272 1091.54 8.4C1091.38 8.51733 1091.16 8.576 1090.87 8.576C1090.68 8.576 1090.49 8.53333 1090.32 8.448C1090.15 8.36267 1089.97 8.26133 1089.78 8.144C1089.59 8.016 1089.37 7.88267 1089.14 7.744C1088.92 7.59467 1088.64 7.46133 1088.32 7.344C1088.01 7.216 1087.65 7.10933 1087.22 7.024C1086.8 6.93867 1086.31 6.896 1085.75 6.896C1084.85 6.896 1084.03 7.06133 1083.28 7.392C1082.55 7.72267 1081.91 8.208 1081.36 8.848C1080.83 9.47733 1080.41 10.256 1080.12 11.184C1079.83 12.1013 1079.68 13.152 1079.68 14.336C1079.68 15.5307 1079.84 16.592 1080.16 17.52C1080.49 18.448 1080.94 19.232 1081.49 19.872C1082.06 20.5013 1082.71 20.9813 1083.46 21.312C1084.21 21.6427 1085.01 21.808 1085.86 21.808C1086.35 21.808 1086.8 21.7867 1087.2 21.744C1087.61 21.6907 1087.99 21.6107 1088.34 21.504C1088.69 21.3867 1089.02 21.2373 1089.33 21.056C1089.64 20.864 1089.96 20.624 1090.28 20.336C1090.4 20.2293 1090.54 20.144 1090.69 20.08C1090.84 20.0053 1091 19.968 1091.16 19.968ZM747 53.712C747 53.3173 746.947 52.9333 746.84 52.56C746.744 52.1867 746.579 51.856 746.344 51.568C746.12 51.2693 745.821 51.0293 745.448 50.848C745.075 50.6667 744.621 50.576 744.088 50.576C743.149 50.576 742.413 50.848 741.88 51.392C741.347 51.9253 740.995 52.6987 740.824 53.712H747ZM740.76 56.592C740.92 57.9787 741.341 58.9867 742.024 59.616C742.707 60.2347 743.587 60.544 744.664 60.544C745.24 60.544 745.736 60.4747 746.152 60.336C746.568 60.1973 746.936 60.0427 747.256 59.872C747.587 59.7013 747.885 59.5467 748.152 59.408C748.429 59.2693 748.717 59.2 749.016 59.2C749.411 59.2 749.709 59.344 749.912 59.632L751.352 61.408C750.84 61.9947 750.285 62.4747 749.688 62.848C749.101 63.2107 748.493 63.4987 747.864 63.712C747.245 63.9147 746.621 64.0533 745.992 64.128C745.373 64.2133 744.781 64.256 744.216 64.256C743.053 64.256 741.96 64.0693 740.936 63.696C739.923 63.312 739.032 62.7467 738.264 62C737.507 61.2533 736.904 60.3253 736.456 59.216C736.019 58.1067 735.8 56.816 735.8 55.344C735.8 54.2347 735.987 53.184 736.36 52.192C736.744 51.2 737.288 50.3307 737.992 49.584C738.707 48.8373 739.565 48.2453 740.568 47.808C741.581 47.3707 742.723 47.152 743.992 47.152C745.091 47.152 746.093 47.3227 747 47.664C747.917 48.0053 748.701 48.5013 749.352 49.152C750.013 49.8027 750.525 50.6027 750.888 51.552C751.261 52.4907 751.448 53.5573 751.448 54.752C751.448 55.1253 751.432 55.4293 751.4 55.664C751.368 55.8987 751.309 56.0853 751.224 56.224C751.139 56.3627 751.021 56.4587 750.872 56.512C750.733 56.5653 750.552 56.592 750.328 56.592H740.76ZM758.506 49.2C758.826 48.9013 759.157 48.624 759.498 48.368C759.839 48.112 760.202 47.8987 760.586 47.728C760.981 47.5467 761.402 47.408 761.85 47.312C762.309 47.2053 762.805 47.152 763.338 47.152C764.245 47.152 765.045 47.312 765.738 47.632C766.442 47.9413 767.034 48.3787 767.514 48.944C767.994 49.4987 768.357 50.1653 768.602 50.944C768.847 51.712 768.97 52.5493 768.97 53.456V64H764.01V53.456C764.01 52.6453 763.823 52.016 763.45 51.568C763.077 51.1093 762.527 50.88 761.802 50.88C761.258 50.88 760.746 50.9973 760.266 51.232C759.797 51.456 759.338 51.7653 758.89 52.16V64H753.93V47.408H757.002C757.621 47.408 758.026 47.6853 758.218 48.24L758.506 49.2ZM776.82 49.968C777.332 49.072 777.919 48.368 778.58 47.856C779.252 47.344 780.02 47.088 780.884 47.088C781.631 47.088 782.239 47.264 782.708 47.616L782.388 51.264C782.335 51.4987 782.244 51.6587 782.116 51.744C781.999 51.8293 781.833 51.872 781.62 51.872C781.535 51.872 781.423 51.8667 781.284 51.856C781.145 51.8453 781.001 51.8347 780.852 51.824C780.703 51.8027 780.548 51.7867 780.388 51.776C780.239 51.7547 780.1 51.744 779.972 51.744C779.247 51.744 778.665 51.936 778.228 52.32C777.801 52.704 777.439 53.2373 777.14 53.92V64H772.18V47.408H775.124C775.369 47.408 775.572 47.4293 775.732 47.472C775.903 47.5147 776.041 47.584 776.148 47.68C776.265 47.7653 776.351 47.8827 776.404 48.032C776.468 48.1813 776.521 48.3627 776.564 48.576L776.82 49.968ZM791.766 47.152C793.024 47.152 794.171 47.3493 795.206 47.744C796.24 48.1387 797.126 48.704 797.862 49.44C798.608 50.176 799.184 51.072 799.59 52.128C800.006 53.1733 800.214 54.352 800.214 55.664C800.214 56.9867 800.006 58.1813 799.59 59.248C799.184 60.304 798.608 61.2053 797.862 61.952C797.126 62.688 796.24 63.2587 795.206 63.664C794.171 64.0587 793.024 64.256 791.766 64.256C790.496 64.256 789.339 64.0587 788.294 63.664C787.259 63.2587 786.363 62.688 785.606 61.952C784.859 61.2053 784.278 60.304 783.862 59.248C783.456 58.1813 783.254 56.9867 783.254 55.664C783.254 54.352 783.456 53.1733 783.862 52.128C784.278 51.072 784.859 50.176 785.606 49.44C786.363 48.704 787.259 48.1387 788.294 47.744C789.339 47.3493 790.496 47.152 791.766 47.152ZM791.766 60.576C792.907 60.576 793.744 60.176 794.278 59.376C794.822 58.5653 795.094 57.3387 795.094 55.696C795.094 54.0533 794.822 52.832 794.278 52.032C793.744 51.232 792.907 50.832 791.766 50.832C790.592 50.832 789.734 51.232 789.19 52.032C788.646 52.832 788.374 54.0533 788.374 55.696C788.374 57.3387 788.646 58.5653 789.19 59.376C789.734 60.176 790.592 60.576 791.766 60.576ZM807.671 40.048V64H802.711V40.048H807.671ZM815.984 40.048V64H811.024V40.048H815.984ZM829.656 53.712C829.656 53.3173 829.603 52.9333 829.496 52.56C829.4 52.1867 829.235 51.856 829 51.568C828.776 51.2693 828.478 51.0293 828.104 50.848C827.731 50.6667 827.278 50.576 826.744 50.576C825.806 50.576 825.07 50.848 824.536 51.392C824.003 51.9253 823.651 52.6987 823.48 53.712H829.656ZM823.416 56.592C823.576 57.9787 823.998 58.9867 824.68 59.616C825.363 60.2347 826.243 60.544 827.32 60.544C827.896 60.544 828.392 60.4747 828.808 60.336C829.224 60.1973 829.592 60.0427 829.912 59.872C830.243 59.7013 830.542 59.5467 830.808 59.408C831.086 59.2693 831.374 59.2 831.672 59.2C832.067 59.2 832.366 59.344 832.568 59.632L834.008 61.408C833.496 61.9947 832.942 62.4747 832.344 62.848C831.758 63.2107 831.15 63.4987 830.52 63.712C829.902 63.9147 829.278 64.0533 828.648 64.128C828.03 64.2133 827.438 64.256 826.872 64.256C825.71 64.256 824.616 64.0693 823.592 63.696C822.579 63.312 821.688 62.7467 820.92 62C820.163 61.2533 819.56 60.3253 819.112 59.216C818.675 58.1067 818.456 56.816 818.456 55.344C818.456 54.2347 818.643 53.184 819.016 52.192C819.4 51.2 819.944 50.3307 820.648 49.584C821.363 48.8373 822.222 48.2453 823.224 47.808C824.238 47.3707 825.379 47.152 826.648 47.152C827.747 47.152 828.75 47.3227 829.656 47.664C830.574 48.0053 831.358 48.5013 832.008 49.152C832.67 49.8027 833.182 50.6027 833.544 51.552C833.918 52.4907 834.104 53.5573 834.104 54.752C834.104 55.1253 834.088 55.4293 834.056 55.664C834.024 55.8987 833.966 56.0853 833.88 56.224C833.795 56.3627 833.678 56.4587 833.528 56.512C833.39 56.5653 833.208 56.592 832.984 56.592H823.416ZM846.65 51.856C846.277 51.44 845.872 51.152 845.434 50.992C844.997 50.8213 844.538 50.736 844.058 50.736C843.6 50.736 843.178 50.8267 842.794 51.008C842.41 51.1893 842.074 51.4827 841.786 51.888C841.509 52.2827 841.29 52.8 841.13 53.44C840.97 54.08 840.89 54.8533 840.89 55.76C840.89 56.6347 840.954 57.3707 841.082 57.968C841.21 58.5653 841.386 59.0507 841.61 59.424C841.845 59.7867 842.122 60.048 842.442 60.208C842.762 60.368 843.12 60.448 843.514 60.448C843.877 60.448 844.202 60.416 844.49 60.352C844.789 60.2773 845.061 60.176 845.306 60.048C845.552 59.92 845.781 59.76 845.994 59.568C846.218 59.3653 846.437 59.136 846.65 58.88V51.856ZM851.61 40.048V64H848.538C847.92 64 847.514 63.7227 847.322 63.168L846.938 61.904C846.608 62.256 846.261 62.576 845.898 62.864C845.536 63.152 845.141 63.4027 844.714 63.616C844.298 63.8187 843.845 63.9733 843.354 64.08C842.874 64.1973 842.352 64.256 841.786 64.256C840.922 64.256 840.122 64.064 839.386 63.68C838.65 63.296 838.016 62.7413 837.482 62.016C836.949 61.2907 836.528 60.4053 836.218 59.36C835.92 58.304 835.77 57.104 835.77 55.76C835.77 54.5227 835.941 53.376 836.282 52.32C836.624 51.2533 837.104 50.336 837.722 49.568C838.352 48.7893 839.104 48.1813 839.978 47.744C840.853 47.3067 841.818 47.088 842.874 47.088C843.738 47.088 844.464 47.2107 845.05 47.456C845.637 47.7013 846.17 48.032 846.65 48.448V40.048H851.61Z" fill="#1A0D76"/>
</svg>
